<mxfile host="app.diagrams.net" modified="2024-03-12T09:15:28.982Z" agent="Mozilla/5.0 (X11; Ubuntu; Linux x86_64; rv:109.0) Gecko/20100101 Firefox/116.0" version="24.0.5" etag="iFab4sKcXIRObtt0MD05" type="github">
  <diagram name="第 1 页" id="UubF1dXdogXIWPUi8x4J">
    <mxGraphModel>
      <root>
        <mxCell id="0" />
        <mxCell id="1" parent="0" />
      </root>
    </mxGraphModel>
  </diagram>
</mxfile>
